name Walk6.mot
datacolumns 19
datarows 10
range 1.59000000 1.63500000
endheader

                time	   L_ground_force_vx	   L_ground_force_vy	   L_ground_force_vz	   L_ground_force_px	   L_ground_force_py	   L_ground_force_pz	   R_ground_force_vx	   R_ground_force_vy	   R_ground_force_vz	   R_ground_force_px	   R_ground_force_py	   R_ground_force_pz	   L_ground_torque_x	   L_ground_torque_y	   L_ground_torque_z	   R_ground_torque_x	   R_ground_torque_y	   R_ground_torque_z	
          1.59000000	         21.50018953	        523.92023389	         33.78103235	         -0.33931045	          0.00000000	         -0.08302690	         -0.00000000	          0.00000000	          0.00000000	          0.00000000	          0.00000000	          0.00000000	          0.00000000	         -0.36359622	          0.00000000	          0.00000000	          0.00000000	          0.00000000	
          1.59500000	         23.01606996	        531.85331490	         34.37352532	         -0.33746080	          0.00000000	         -0.08388509	         -0.00000000	          0.00000000	          0.00000000	          0.00000000	          0.00000000	          0.00000000	          0.00000000	         -0.34004533	          0.00000000	          0.00000000	          0.00000000	          0.00000000	
          1.60000000	         24.70689792	        540.14737744	         35.02985243	         -0.33578949	          0.00000000	         -0.08457824	          0.00000000	         -0.00000000	          0.00000000	         -0.00000000	          0.00000000	         -0.00000000	          0.00000000	         -0.31925756	          0.00000000	          0.00000000	         -0.00000000	          0.00000000	
          1.60500000	         26.55462409	        549.36969519	         35.65249404	         -0.33431878	          0.00000000	         -0.08490262	          0.00000000	         -0.00000000	         -0.00000000	         -0.00000000	          0.00000000	         -0.00000000	          0.00000000	         -0.34400756	          0.00000000	          0.00000000	         -0.00000000	          0.00000000	
          1.61000000	         28.46329349	        559.43395111	         36.21009475	         -0.33304461	          0.00000000	         -0.08525503	          0.00000000	         -0.00000000	         -0.00000000	         -0.00000000	          0.00000000	         -0.00000000	          0.00000000	         -0.36292764	          0.00000000	          0.00000000	         -0.00000000	          0.00000000	
          1.61500000	         30.56345850	        569.56230520	         36.88639417	         -0.33182435	          0.00000000	         -0.08571907	         -0.00000000	          0.00000000	         -0.00000000	          0.00000000	          0.00000000	          0.00000000	          0.00000000	         -0.37523657	          0.00000000	          0.00000000	          0.00000000	          0.00000000	
          1.62000000	         33.13167444	        579.63345413	         37.81359972	         -0.33056215	          0.00000000	         -0.08631825	         -0.00000000	          0.00000000	          0.00000000	          0.00000000	          0.00000000	          0.00000000	          0.00000000	         -0.38501688	          0.00000000	          0.00000000	          0.00000000	          0.00000000	
          1.62500000	         36.15202739	        590.01323202	         38.84686101	         -0.32946005	          0.00000000	         -0.08686467	         -0.00000000	          0.00000000	          0.00000000	         -0.00000000	          0.00000000	         -0.00000000	          0.00000000	         -0.36296911	          0.00000000	          0.00000000	          0.00000000	          0.00000000	
          1.63000000	         39.18123014	        600.78781978	         39.81289205	         -0.32864181	          0.00000000	         -0.08712057	          0.00000000	         -0.00000001	          0.00000000	         -0.00000000	          0.00000000	         -0.00000000	          0.00000000	         -0.33803836	          0.00000000	          0.00000000	         -0.00000000	          0.00000000	
          1.63500000	         41.94637526	        611.69044021	         40.73907320	         -0.32790504	          0.00000000	         -0.08719374	          0.00000000	         -0.00000006	         -0.00000000	         -0.00000000	          0.00000000	         -0.00000000	          0.00000000	         -0.34859886	          0.00000000	          0.00000000	         -0.00000000	          0.00000000	
